name rise30.9205peak61.366fall85.3838.mot
datacolumns 19
datarows 36
range 13.89994700000000 13.95827900000000
endheader
time	ground_force1_vx	ground_force1_vy	ground_force1_vz	ground_force1_px	ground_force1_py	ground_force1_pz	ground_force2_vx	ground_force2_vy	ground_force2_vz	ground_force2_px	ground_force2_py	ground_force2_pz	ground_torque1_x	ground_torque1_y	ground_torque1_z	ground_torque2_x	ground_torque2_y	ground_torque2_z	
13.89994700000000	58.33565800000000	781.43565500000000	53.31532400000000	0.33822200000000	0.00000000000000	0.10346600000000	0.00000000000000	0.00000000000000	0.00000000000000	0.00000000000000	0.00000000000000	0.00000000000000	0.00000000000000	23.35044300000000	0.00000000000000	0.00000000000000	0.00000000000000	0.00000000000000	
13.90161700000000	57.77863000000000	783.21460999999999	53.16216500000000	0.33727300000000	0.00000000000000	0.10339200000000	0.00000000000000	0.00000000000000	0.00000000000000	0.00000000000000	0.00000000000000	0.00000000000000	0.00000000000000	23.23196600000000	0.00000000000000	0.00000000000000	0.00000000000000	0.00000000000000	
13.90328400000000	57.23556100000000	784.88833899999997	53.00211300000000	0.33636700000000	0.00000000000000	0.10331800000000	0.00000000000000	0.00000000000000	0.00000000000000	0.00000000000000	0.00000000000000	0.00000000000000	0.00000000000000	23.10949600000000	0.00000000000000	0.00000000000000	0.00000000000000	0.00000000000000	
13.90494900000000	56.70607300000000	786.45525599999996	52.83561400000000	0.33550100000000	0.00000000000000	0.10324300000000	0.00000000000000	0.00000000000000	0.00000000000000	0.00000000000000	0.00000000000000	0.00000000000000	0.00000000000000	22.98339500000000	0.00000000000000	0.00000000000000	0.00000000000000	0.00000000000000	
13.90661300000000	56.18968900000000	787.91389300000003	52.66306900000000	0.33467400000000	0.00000000000000	0.10316700000000	0.00000000000000	0.00000000000000	0.00000000000000	0.00000000000000	0.00000000000000	0.00000000000000	0.00000000000000	22.85400000000000	0.00000000000000	0.00000000000000	0.00000000000000	0.00000000000000	
13.90828600000000	55.68584600000000	789.26291000000003	52.48483900000000	0.33388400000000	0.00000000000000	0.10309000000000	0.00000000000000	0.00000000000000	0.00000000000000	0.00000000000000	0.00000000000000	0.00000000000000	0.00000000000000	22.72161500000000	0.00000000000000	0.00000000000000	0.00000000000000	0.00000000000000	
13.90995000000000	55.19389500000000	790.50111600000002	52.30124200000000	0.33312900000000	0.00000000000000	0.10301300000000	0.00000000000000	0.00000000000000	0.00000000000000	0.00000000000000	0.00000000000000	0.00000000000000	0.00000000000000	22.58652200000000	0.00000000000000	0.00000000000000	0.00000000000000	0.00000000000000	
13.91163200000000	54.71311300000000	791.62747100000001	52.11255700000000	0.33240800000000	0.00000000000000	0.10293500000000	0.00000000000000	0.00000000000000	0.00000000000000	0.00000000000000	0.00000000000000	0.00000000000000	0.00000000000000	22.44897400000000	0.00000000000000	0.00000000000000	0.00000000000000	0.00000000000000	
13.91328400000000	54.24271100000000	792.64110700000003	51.91902700000000	0.33171800000000	0.00000000000000	0.10285700000000	0.00000000000000	0.00000000000000	0.00000000000000	0.00000000000000	0.00000000000000	0.00000000000000	0.00000000000000	22.30919900000000	0.00000000000000	0.00000000000000	0.00000000000000	0.00000000000000	
13.91495000000000	53.78183900000000	793.54133300000001	51.72085700000000	0.33105700000000	0.00000000000000	0.10277800000000	0.00000000000000	0.00000000000000	0.00000000000000	0.00000000000000	0.00000000000000	0.00000000000000	0.00000000000000	22.16740200000000	0.00000000000000	0.00000000000000	0.00000000000000	0.00000000000000	
13.91663400000000	53.32959700000000	794.32764199999997	51.51822100000000	0.33042200000000	0.00000000000000	0.10269900000000	0.00000000000000	0.00000000000000	0.00000000000000	0.00000000000000	0.00000000000000	0.00000000000000	0.00000000000000	22.02376400000000	0.00000000000000	0.00000000000000	0.00000000000000	0.00000000000000	
13.91828100000000	52.88504000000000	794.99972500000001	51.31126100000000	0.32981200000000	0.00000000000000	0.10262000000000	0.00000000000000	0.00000000000000	0.00000000000000	0.00000000000000	0.00000000000000	0.00000000000000	0.00000000000000	21.87844400000000	0.00000000000000	0.00000000000000	0.00000000000000	0.00000000000000	
13.91994400000000	52.44718900000000	795.55747399999996	51.10009300000000	0.32922300000000	0.00000000000000	0.10254100000000	0.00000000000000	0.00000000000000	0.00000000000000	0.00000000000000	0.00000000000000	0.00000000000000	0.00000000000000	21.73158000000000	0.00000000000000	0.00000000000000	0.00000000000000	0.00000000000000	
13.92162300000000	52.01504000000000	796.00098600000001	50.88480600000000	0.32865300000000	0.00000000000000	0.10246200000000	0.00000000000000	0.00000000000000	0.00000000000000	0.00000000000000	0.00000000000000	0.00000000000000	0.00000000000000	21.58329000000000	0.00000000000000	0.00000000000000	0.00000000000000	0.00000000000000	
13.92328400000000	51.58756500000000	796.33057199999996	50.66546800000000	0.32810000000000	0.00000000000000	0.10238300000000	0.00000000000000	0.00000000000000	0.00000000000000	0.00000000000000	0.00000000000000	0.00000000000000	0.00000000000000	21.43367700000000	0.00000000000000	0.00000000000000	0.00000000000000	0.00000000000000	
13.92494900000000	51.16372800000000	796.54675499999996	50.44212600000000	0.32755900000000	0.00000000000000	0.10230400000000	0.00000000000000	0.00000000000000	0.00000000000000	0.00000000000000	0.00000000000000	0.00000000000000	0.00000000000000	21.28282300000000	0.00000000000000	0.00000000000000	0.00000000000000	0.00000000000000	
13.92661300000000	50.74249000000000	796.65027799999996	50.21481300000000	0.32703000000000	0.00000000000000	0.10222500000000	0.00000000000000	0.00000000000000	0.00000000000000	0.00000000000000	0.00000000000000	0.00000000000000	0.00000000000000	21.13080000000000	0.00000000000000	0.00000000000000	0.00000000000000	0.00000000000000	
13.92828700000000	50.32281400000000	796.64209700000004	49.98354600000000	0.32650900000000	0.00000000000000	0.10214700000000	0.00000000000000	0.00000000000000	0.00000000000000	0.00000000000000	0.00000000000000	0.00000000000000	0.00000000000000	20.97766400000000	0.00000000000000	0.00000000000000	0.00000000000000	0.00000000000000	
13.92995300000000	49.90367400000000	796.52338699999996	49.74833300000000	0.32599300000000	0.00000000000000	0.10207000000000	0.00000000000000	0.00000000000000	0.00000000000000	0.00000000000000	0.00000000000000	0.00000000000000	0.00000000000000	20.82345900000000	0.00000000000000	0.00000000000000	0.00000000000000	0.00000000000000	
13.93162300000000	49.48406300000000	796.29553699999997	49.50917500000000	0.32547900000000	0.00000000000000	0.10199300000000	0.00000000000000	0.00000000000000	0.00000000000000	0.00000000000000	0.00000000000000	0.00000000000000	0.00000000000000	20.66822100000000	0.00000000000000	0.00000000000000	0.00000000000000	0.00000000000000	
13.93327800000000	49.06300000000000	795.96014800000000	49.26606800000000	0.32496500000000	0.00000000000000	0.10191600000000	0.00000000000000	0.00000000000000	0.00000000000000	0.00000000000000	0.00000000000000	0.00000000000000	0.00000000000000	20.51197700000000	0.00000000000000	0.00000000000000	0.00000000000000	0.00000000000000	
13.93495200000000	48.63953200000000	795.51903000000004	49.01900600000000	0.32444700000000	0.00000000000000	0.10184100000000	0.00000000000000	0.00000000000000	0.00000000000000	0.00000000000000	0.00000000000000	0.00000000000000	0.00000000000000	20.35474700000000	0.00000000000000	0.00000000000000	0.00000000000000	0.00000000000000	
13.93662500000000	48.21274500000000	794.97419500000001	48.76798700000000	0.32392400000000	0.00000000000000	0.10176600000000	0.00000000000000	0.00000000000000	0.00000000000000	0.00000000000000	0.00000000000000	0.00000000000000	0.00000000000000	20.19654800000000	0.00000000000000	0.00000000000000	0.00000000000000	0.00000000000000	
13.93828600000000	47.78176600000000	794.32785100000001	48.51301000000000	0.32339200000000	0.00000000000000	0.10169200000000	0.00000000000000	0.00000000000000	0.00000000000000	0.00000000000000	0.00000000000000	0.00000000000000	0.00000000000000	20.03739200000000	0.00000000000000	0.00000000000000	0.00000000000000	0.00000000000000	
13.93995100000000	47.34577200000000	793.58239900000001	48.25408200000000	0.32284800000000	0.00000000000000	0.10162000000000	0.00000000000000	0.00000000000000	0.00000000000000	0.00000000000000	0.00000000000000	0.00000000000000	0.00000000000000	19.87729200000000	0.00000000000000	0.00000000000000	0.00000000000000	0.00000000000000	
13.94162100000000	46.90399000000000	792.74041899999997	47.99121900000000	0.32229100000000	0.00000000000000	0.10154800000000	0.00000000000000	0.00000000000000	0.00000000000000	0.00000000000000	0.00000000000000	0.00000000000000	0.00000000000000	19.71625800000000	0.00000000000000	0.00000000000000	0.00000000000000	0.00000000000000	
13.94328300000000	46.45570400000000	791.80466799999999	47.72444900000000	0.32171800000000	0.00000000000000	0.10147800000000	0.00000000000000	0.00000000000000	0.00000000000000	0.00000000000000	0.00000000000000	0.00000000000000	0.00000000000000	19.55430500000000	0.00000000000000	0.00000000000000	0.00000000000000	0.00000000000000	
13.94494400000000	46.00025900000000	790.77806299999997	47.45381100000000	0.32112600000000	0.00000000000000	0.10141000000000	0.00000000000000	0.00000000000000	0.00000000000000	0.00000000000000	0.00000000000000	0.00000000000000	0.00000000000000	19.39145000000000	0.00000000000000	0.00000000000000	0.00000000000000	0.00000000000000	
13.94662100000000	45.53706200000000	789.66367800000000	47.17936100000000	0.32051300000000	0.00000000000000	0.10134300000000	0.00000000000000	0.00000000000000	0.00000000000000	0.00000000000000	0.00000000000000	0.00000000000000	0.00000000000000	19.22771500000000	0.00000000000000	0.00000000000000	0.00000000000000	0.00000000000000	
13.94828600000000	45.06558900000000	788.46472900000003	46.90117200000000	0.31987600000000	0.00000000000000	0.10127700000000	0.00000000000000	0.00000000000000	0.00000000000000	0.00000000000000	0.00000000000000	0.00000000000000	0.00000000000000	19.06312600000000	0.00000000000000	0.00000000000000	0.00000000000000	0.00000000000000	
13.94994600000000	44.58538400000000	787.18456500000002	46.61933300000000	0.31921500000000	0.00000000000000	0.10121300000000	0.00000000000000	0.00000000000000	0.00000000000000	0.00000000000000	0.00000000000000	0.00000000000000	0.00000000000000	18.89771800000000	0.00000000000000	0.00000000000000	0.00000000000000	0.00000000000000	
13.95162500000000	44.09606000000000	785.82665499999996	46.33395500000000	0.31852600000000	0.00000000000000	0.10115100000000	0.00000000000000	0.00000000000000	0.00000000000000	0.00000000000000	0.00000000000000	0.00000000000000	0.00000000000000	18.73153200000000	0.00000000000000	0.00000000000000	0.00000000000000	0.00000000000000	
13.95327800000000	43.59730400000000	784.39457400000003	46.04516700000000	0.31780900000000	0.00000000000000	0.10109000000000	0.00000000000000	0.00000000000000	0.00000000000000	0.00000000000000	0.00000000000000	0.00000000000000	0.00000000000000	18.56462100000000	0.00000000000000	0.00000000000000	0.00000000000000	0.00000000000000	
13.95495200000000	43.08887700000000	782.89199799999994	45.75311900000000	0.31706000000000	0.00000000000000	0.10103200000000	0.00000000000000	0.00000000000000	0.00000000000000	0.00000000000000	0.00000000000000	0.00000000000000	0.00000000000000	18.39704300000000	0.00000000000000	0.00000000000000	0.00000000000000	0.00000000000000	
13.95662600000000	42.57061200000000	781.32268099999999	45.45798100000000	0.31628000000000	0.00000000000000	0.10097500000000	0.00000000000000	0.00000000000000	0.00000000000000	0.00000000000000	0.00000000000000	0.00000000000000	0.00000000000000	18.22886800000000	0.00000000000000	0.00000000000000	0.00000000000000	0.00000000000000	
13.95827900000000	42.04241700000000	779.69045200000005	45.15994600000000	0.31546700000000	0.00000000000000	0.10092100000000	0.00000000000000	0.00000000000000	0.00000000000000	0.00000000000000	0.00000000000000	0.00000000000000	0.00000000000000	18.06017800000000	0.00000000000000	0.00000000000000	0.00000000000000	0.00000000000000	
